<?xml version="1.0" encoding="UTF-8"?>
<svg width="267px" height="41px" viewBox="0 0 267 41" version="1.1" xmlns="http://www.w3.org/2000/svg" xmlns:xlink="http://www.w3.org/1999/xlink">
    <!-- Generator: Sketch 55.1 (78136) - https://sketchapp.com -->
    <title>Artboard</title>
    <desc>Created with Sketch.</desc>
    <g id="Artboard" stroke="none" stroke-width="1" fill="none" fill-rule="evenodd">
        <g id="logo" fill="#EF60A3" fill-rule="nonzero">
            <path d="M26.9855615,34.0017241 C25.6291444,35.7689655 24.0585561,37.2534483 22.2024064,38.4551724 C21.0601604,39.162069 19.7037433,39.5155172 18.3473262,39.5862069 L0.785294118,39.5862069 L0.785294118,1.55517241 L18.4187166,1.55517241 C19.7751337,1.55517241 21.1315508,1.90862069 22.3451872,2.61551724 C23.7729947,3.4637931 26.2002674,6.15 26.9855615,7.28103448 C27.6994652,8.34137931 28.0564171,9.6137931 27.9850267,10.8862069 L27.9850267,30.3965517 C28.0564171,31.6689655 27.6994652,32.9413793 26.9855615,34.0017241 Z M17.9903743,33.2241379 C17.9903743,33.2241379 18.3473262,33.2241379 18.4187166,33.1534483 C19.3467914,32.6586207 21.2743316,30.962069 21.2743316,30.2551724 L21.2743316,11.0982759 C21.2743316,10.9568966 21.2743316,10.8862069 21.2029412,10.8155172 C20.4890374,9.68448276 19.4895722,8.69482759 18.3473262,7.98793103 C18.1331551,7.91724138 17.9903743,7.91724138 17.7762032,7.91724138 L7.56737968,7.91724138 L7.56737968,33.2241379 L17.9903743,33.2241379 Z" id="Shape"></path>
            <path d="M18.4187166,40.2931034 L0.0713903743,40.2931034 L0.0713903743,0.848275862 L18.4187166,0.848275862 C19.9179144,0.848275862 21.4171123,1.27241379 22.702139,2.05 C24.2727273,2.96896552 26.7713904,5.86724138 27.5566845,6.85689655 C28.3419786,8.05862069 28.7703209,9.47241379 28.6989305,10.8862069 L28.6989305,30.3965517 C28.7703209,31.8103448 28.3419786,33.2241379 27.6280749,34.4258621 L27.6280749,34.4258621 C26.2716578,36.2637931 24.5582888,37.8189655 22.6307487,39.0913793 C21.3457219,39.7982759 19.8465241,40.2224138 18.4187166,40.2931034 Z M1.49919786,38.8793103 L18.4187166,38.8793103 C19.6323529,38.8086207 20.8459893,38.4551724 21.9168449,37.8189655 C23.6302139,36.6172414 25.1294118,35.2034483 26.4144385,33.5775862 L26.4144385,33.5775862 C26.9855615,32.587931 27.271123,31.5275862 27.271123,30.3965517 L27.271123,10.8862069 C27.3425134,9.75517241 27.0569519,8.62413793 26.4144385,7.70517241 C25.6291444,6.57413793 23.273262,3.95862069 21.9882353,3.25172414 C20.9173797,2.61551724 19.7037433,2.26206897 18.4187166,2.26206897 L1.49919786,2.26206897 L1.49919786,38.8793103 Z M17.918984,33.9310345 L6.85347594,33.9310345 L6.85347594,7.21034483 L17.7762032,7.21034483 C18.1331551,7.21034483 18.4187166,7.21034483 18.7042781,7.35172414 C19.9893048,8.12931034 20.9887701,9.18965517 21.7740642,10.3913793 C21.9168449,10.6034483 21.9168449,10.8862069 21.9168449,11.0982759 L21.9168449,30.2551724 C21.9168449,31.5275862 19.4895722,33.3655172 18.7756684,33.7896552 C18.5614973,33.9310345 18.2759358,34.0017241 17.918984,33.9310345 L17.918984,33.9310345 Z M17.918984,32.5172414 L18.0617647,32.5172414 C18.9898396,31.9517241 20.3462567,30.6793103 20.4890374,30.1844828 L20.4890374,11.0982759 C19.8465241,10.1086207 19.0612299,9.26034483 17.9903743,8.62413793 L8.28128342,8.62413793 L8.28128342,32.5172414 L17.918984,32.5172414 Z" id="Shape"></path>
            <path d="M55.7558824,1.55517241 L62.4665775,1.55517241 L62.4665775,30.537931 C62.4665775,31.8103448 62.1096257,33.0827586 61.4671123,34.1431034 C60.6818182,35.2034483 58.1831551,37.9603448 56.7553476,38.737931 C55.5417112,39.4448276 54.1852941,39.8689655 52.828877,39.9396552 L44.6903743,39.9396552 C43.2625668,39.9396552 41.9061497,39.5155172 40.6925134,38.8086207 C39.3360963,38.0310345 36.7660428,35.2741379 35.9807487,34.2137931 C35.2668449,33.1534483 34.909893,31.8810345 34.9812834,30.6086207 L34.9812834,1.62586207 L41.6919786,1.62586207 L41.6919786,30.3965517 C41.6919786,30.3965517 41.6919786,30.6793103 41.763369,30.6793103 C42.4772727,31.8103448 43.476738,32.7293103 44.618984,33.4362069 C44.6903743,33.5068966 44.8331551,33.5068966 44.9045455,33.5068966 L52.5433155,33.5068966 C52.6860963,33.5068966 52.7574866,33.5068966 52.828877,33.4362069 C53.8997326,32.7293103 54.8991979,31.8103448 55.6131016,30.75 C55.684492,30.6793103 55.684492,30.6086207 55.684492,30.4672414 L55.7558824,1.55517241 Z" id="Path"></path>
            <path d="M52.828877,40.5758621 L44.6903743,40.5758621 C43.1197861,40.5758621 41.6205882,40.0810345 40.3355615,39.3034483 C38.907754,38.5258621 36.2663102,35.6982759 35.4096257,34.4965517 C34.6243316,33.2948276 34.1959893,31.8810345 34.2673797,30.4672414 L34.2673797,0.777586207 L42.4058824,0.777586207 L42.4058824,30.3965517 L42.4058824,30.3965517 C43.0483957,31.3862069 43.9050802,32.1637931 44.9045455,32.8 L52.5433155,32.8 C53.4713904,32.1637931 54.3280749,31.3155172 54.9705882,30.3965517 L54.9705882,0.848275862 L63.1090909,0.848275862 L63.1090909,30.537931 C63.1090909,31.9517241 62.752139,33.3655172 61.9668449,34.5672414 C61.2529412,35.5568966 58.6114973,38.5258621 57.0409091,39.3741379 C55.8272727,40.1517241 54.3280749,40.5758621 52.828877,40.5758621 Z M35.6951872,2.26206897 L35.6951872,30.537931 C35.6951872,31.6689655 35.9807487,32.8 36.623262,33.7896552 C37.3371658,34.85 39.8358289,37.4655172 41.0494652,38.1724138 C42.1203209,38.8086207 43.4053476,39.162069 44.6903743,39.2327586 L52.828877,39.2327586 C54.1139037,39.2327586 55.3275401,38.8793103 56.3983957,38.2431034 C57.6834225,37.5362069 60.1106952,34.9206897 60.8959893,33.8603448 C61.5385027,32.8706897 61.8240642,31.8103448 61.8240642,30.6086207 L61.8240642,2.33275862 L56.4697861,2.33275862 L56.4697861,30.537931 C56.4697861,30.75 56.3983957,30.962069 56.3270053,31.1034483 L56.255615,31.1741379 C55.4703209,32.3758621 54.3994652,33.3655172 53.2572193,34.1431034 C53.0430481,34.2137931 52.828877,34.2844828 52.6147059,34.2844828 L44.9045455,34.2844828 C44.6903743,34.2844828 44.4762032,34.2137931 44.2620321,34.1431034 C43.0483957,33.3655172 41.9775401,32.3758621 41.192246,31.2448276 C41.0494652,31.0327586 40.9780749,30.75 40.9780749,30.4672414 L40.9780749,2.26206897 L35.6951872,2.26206897 Z" id="Shape"></path>
            <path d="M95.163369,34.7793103 C94.1639037,36.0517241 93.0216578,37.1827586 91.736631,38.2431034 C90.3802139,39.162069 88.7382353,39.6568966 87.0962567,39.6568966 L69.034492,39.6568966 L69.034492,1.62586207 L87.0962567,1.62586207 C88.7382353,1.62586207 90.3802139,2.12068966 91.736631,3.11034483 C93.0216578,4.1 94.1639037,5.30172414 95.163369,6.57413793 C95.9486631,7.77586207 96.305615,9.11896552 96.2342246,10.5327586 L96.2342246,15.2689655 C96.2342246,17.9551724 95.2347594,19.3689655 93.7355615,20.7827586 C95.2347594,22.2672414 96.2342246,23.6103448 96.2342246,26.2258621 L96.2342246,31.0327586 C96.2342246,32.3051724 95.8772727,33.5775862 95.163369,34.7793103 Z M89.5235294,14.9862069 L89.5235294,10.462069 C89.5235294,10.3206897 89.5235294,10.25 89.452139,10.1793103 C88.881016,9.18965517 87.6673797,7.98793103 87.0962567,7.98793103 L75.8165775,7.98793103 L75.8165775,17.6017241 L87.0962567,17.6017241 C87.6673797,17.6017241 88.9524064,16.4706897 89.3807487,15.4810345 C89.452139,15.2689655 89.5235294,15.1275862 89.5235294,14.9862069 L89.5235294,14.9862069 Z M89.5235294,30.6793103 L89.5235294,26.1551724 C89.5235294,26.0137931 89.5235294,25.9431034 89.452139,25.8724138 C88.881016,24.8827586 87.6673797,23.6810345 87.0962567,23.6810345 L75.8165775,23.6810345 L75.8165775,33.2241379 L87.0962567,33.2241379 C87.6673797,33.2241379 88.9524064,32.0931034 89.3807487,31.1034483 C89.452139,30.962069 89.5235294,30.8206897 89.5235294,30.6793103 L89.5235294,30.6793103 Z" id="Shape"></path>
            <path d="M87.0962567,40.2931034 L68.3205882,40.2931034 L68.3205882,0.848275862 L87.0962567,0.848275862 C88.881016,0.848275862 90.6657754,1.4137931 92.1649733,2.40344828 C93.5213904,3.4637931 94.6636364,4.66551724 95.734492,6.00862069 C96.5911765,7.28103448 97.0195187,8.8362069 96.9481283,10.3206897 L96.9481283,15.0568966 C97.0195187,17.1068966 96.2342246,19.1568966 94.7350267,20.5706897 C96.2342246,21.9844828 97.0195187,23.9637931 96.9481283,26.0137931 L96.9481283,30.8206897 C96.9481283,32.3051724 96.5911765,33.7896552 95.734492,35.062069 L95.734492,35.062069 C94.6636364,36.4051724 93.5213904,37.6068966 92.1649733,38.6672414 C90.6657754,39.7275862 88.881016,40.2931034 87.0962567,40.2931034 Z M69.7483957,38.8793103 L87.0962567,38.8793103 C88.5954545,38.8793103 90.023262,38.4551724 91.3082888,37.6068966 C92.5219251,36.6172414 93.5927807,35.5568966 94.5208556,34.3551724 C95.163369,33.3655172 95.5203209,32.1637931 95.5203209,30.962069 L95.5203209,26.1551724 C95.5203209,23.6810345 94.5208556,22.4793103 93.2358289,21.2068966 L92.7360963,20.712069 L93.2358289,20.2172414 C94.7350267,18.7327586 95.5203209,17.5310345 95.5203209,15.1982759 L95.5203209,10.462069 C95.5203209,9.18965517 95.2347594,7.98793103 94.5208556,6.92758621 C93.5927807,5.72586207 92.5219251,4.66551724 91.3082888,3.67586207 C90.0946524,2.82758621 88.5954545,2.33275862 87.0962567,2.33275862 L69.8197861,2.33275862 L69.7483957,38.8793103 Z M87.0962567,33.9310345 L75.1026738,33.9310345 L75.1026738,22.9741379 L87.0962567,22.9741379 C88.0957219,22.9741379 89.5235294,24.4586207 90.0946524,25.5189655 C90.1660428,25.7310345 90.2374332,25.9431034 90.2374332,26.1551724 L90.2374332,30.6793103 C90.2374332,30.8913793 90.2374332,31.1034483 90.1660428,31.3155172 L90.1660428,31.3862069 C89.5949198,32.4465517 88.1671123,33.9310345 87.0962567,33.9310345 Z M76.5304813,32.5172414 L87.0962567,32.5172414 C87.8101604,32.1637931 88.3812834,31.5982759 88.7382353,30.8913793 C88.7382353,30.8206897 88.7382353,30.75 88.7382353,30.6793103 L88.7382353,26.1551724 C88.309893,25.4482759 87.7387701,24.812069 86.9534759,24.387931 L76.5304813,24.387931 L76.5304813,32.5172414 Z M87.0962567,18.237931 L75.1026738,18.237931 L75.1026738,7.21034483 L87.0962567,7.21034483 C88.1671123,7.21034483 89.5949198,8.90689655 90.0946524,9.82586207 L90.1660428,9.96724138 C90.2374332,10.1086207 90.2374332,10.3206897 90.2374332,10.5327586 L90.2374332,15.0568966 C90.2374332,15.3396552 90.2374332,15.5517241 90.0946524,15.8344828 C89.5949198,16.6827586 88.1671123,18.237931 87.0962567,18.237931 Z M76.5304813,16.8241379 L87.0962567,16.8241379 C87.8101604,16.4 88.3812834,15.8344828 88.7382353,15.1275862 L88.7382353,15.1275862 C88.7382353,15.1275862 88.7382353,15.0568966 88.7382353,14.9862069 L88.7382353,10.462069 L88.7382353,10.3913793 C88.309893,9.68448276 87.7387701,9.04827586 86.9534759,8.55344828 L76.4590909,8.55344828 L76.5304813,16.8241379 Z" id="Shape"></path>
            <polygon id="Path" points="123.362567 39.5862069 123.362567 23.8931034 109.370053 23.8931034 109.370053 39.5862069 102.659358 39.5862069 102.659358 1.55517241 109.370053 1.55517241 109.370053 17.5310345 123.362567 17.5310345 123.362567 1.55517241 130.073262 1.55517241 130.073262 39.5862069"></polygon>
            <path d="M130.787166,40.2931034 L122.648663,40.2931034 L122.648663,24.6 L110.083957,24.6 L110.083957,40.2931034 L101.945455,40.2931034 L101.945455,0.848275862 L110.083957,0.848275862 L110.083957,16.8241379 L122.648663,16.8241379 L122.648663,0.848275862 L130.787166,0.848275862 L130.787166,40.2931034 Z M124.076471,38.8793103 L129.359358,38.8793103 L129.359358,2.26206897 L124.076471,2.26206897 L124.076471,18.237931 L108.65615,18.237931 L108.65615,2.26206897 L103.373262,2.26206897 L103.373262,38.8793103 L108.65615,38.8793103 L108.65615,23.1862069 L124.076471,23.1862069 L124.076471,38.8793103 Z" id="Shape"></path>
            <path d="M161.699198,39.5862069 L158.843583,31.5275862 L144.279947,31.5275862 L141.424332,39.5862069 L134.285294,39.5862069 L147.706684,1.55517241 L155.559626,1.55517241 L168.909626,39.5862069 L161.699198,39.5862069 Z M151.633155,10.1086207 L146.421658,25.0948276 L156.773262,25.0948276 L151.633155,10.1086207 Z" id="Shape"></path>
            <path d="M169.909091,40.2931034 L161.199465,40.2931034 L158.34385,32.2344828 L144.779679,32.2344828 L141.924064,40.2931034 L133.214439,40.2931034 L147.135561,0.848275862 L155.987968,0.848275862 L169.909091,40.2931034 Z M162.19893,38.8793103 L167.91016,38.8793103 L155.059893,2.26206897 L148.206417,2.26206897 L135.284759,38.8793103 L140.924599,38.8793103 L143.780214,30.8206897 L159.414706,30.8206897 L162.19893,38.8793103 Z M157.772727,25.8724138 L145.422193,25.8724138 L151.633155,7.98793103 L157.772727,25.8724138 Z M147.421123,24.4586207 L155.773797,24.4586207 L151.633155,12.3706897 L147.421123,24.4586207 Z" id="Shape"></path>
            <path d="M198.32246,34.637931 C196.680481,36.8293103 193.753476,39.9396552 190.183957,39.9396552 L182.188235,39.9396552 C180.760428,39.9396552 179.404011,39.5155172 178.190374,38.8086207 C176.405615,37.5362069 174.835027,36.0517241 173.47861,34.2844828 C172.764706,33.2241379 172.407754,31.9517241 172.479144,30.6793103 L172.479144,10.6034483 C172.479144,9.33103448 172.836096,8.12931034 173.47861,7.06896552 C174.263904,6.00862069 176.833957,3.25172414 178.190374,2.47413793 C179.404011,1.76724138 180.760428,1.4137931 182.188235,1.34310345 L190.183957,1.34310345 C193.753476,1.34310345 196.680481,4.45344828 198.32246,6.64482759 C198.822193,7.35172414 199.250535,8.12931034 199.678877,8.8362069 L193.110963,10.6741379 C193.110963,10.6741379 191.183422,8.34137931 190.255348,7.77586207 C190.183957,7.70517241 190.112567,7.70517241 189.969786,7.70517241 L182.331016,7.70517241 C182.259626,7.70517241 182.188235,7.70517241 182.045455,7.77586207 C180.903209,8.48275862 179.903743,9.47241379 179.118449,10.6034483 C179.047059,10.8155172 179.047059,11.0982759 179.047059,11.3103448 L179.047059,30.6793103 C179.047059,31.4568966 181.045989,33.0827586 181.974064,33.5775862 C182.045455,33.6482759 182.331016,33.6482759 182.402406,33.6482759 L189.684225,33.6482759 C189.827005,33.6482759 189.898396,33.6482759 190.041176,33.5775862 C191.397594,32.9413793 192.896791,30.6086207 192.896791,30.6086207 L199.464706,32.3051724 C199.321925,33.1534483 198.893583,33.9310345 198.32246,34.637931 Z" id="Path"></path>
            <path d="M190.183957,40.5758621 L182.188235,40.5758621 C180.617647,40.5758621 179.118449,40.1517241 177.833422,39.3034483 C175.977273,38.0310345 174.263904,36.4051724 172.907487,34.5672414 C172.122193,33.3655172 171.765241,31.9517241 171.765241,30.537931 L171.765241,10.6034483 C171.765241,9.18965517 172.122193,7.84655172 172.907487,6.64482759 C173.764171,5.5137931 176.405615,2.6862069 177.833422,1.83793103 C179.18984,1.06034483 180.617647,0.636206897 182.188235,0.565517241 L190.183957,0.565517241 C193.110963,0.565517241 196.037968,2.40344828 198.893583,6.15 C199.321925,6.71551724 199.678877,7.35172414 200.035829,7.91724138 L200.749733,9.18965517 L192.896791,11.3810345 L192.61123,11.0275862 C191.825936,10.037931 190.969251,9.11896552 189.969786,8.27068966 L182.473797,8.27068966 C181.474332,8.90689655 180.617647,9.75517241 179.975134,10.6741379 C179.975134,10.7448276 179.975134,10.8862069 179.975134,11.0982759 L179.975134,30.4672414 C180.046524,30.8913793 181.545722,32.2344828 182.473797,32.7293103 L189.969786,32.7293103 C190.969251,32.3051724 192.182888,30.6086207 192.61123,29.9724138 L192.896791,29.5482759 L200.749733,31.5982759 L200.392781,32.3758621 C200.035829,33.2948276 199.536096,34.1431034 198.964973,34.9206897 L198.964973,34.9206897 C196.180749,38.6672414 193.182353,40.5758621 190.183957,40.5758621 Z M182.188235,1.97931034 C180.903209,2.05 179.689572,2.40344828 178.547326,3.03965517 C177.33369,3.74655172 174.835027,6.36206897 174.121123,7.42241379 C173.47861,8.34137931 173.193048,9.47241379 173.264439,10.6034483 L173.264439,30.6793103 C173.264439,31.8103448 173.55,32.9413793 174.192513,33.9310345 C175.47754,35.5568966 176.976738,37.0413793 178.618717,38.2431034 C179.689572,38.8793103 180.974599,39.2327586 182.259626,39.3034483 L190.255348,39.3034483 C193.396524,39.3034483 196.109358,36.6172414 197.822727,34.2844828 C198.179679,33.7896552 198.465241,33.2948276 198.750802,32.7293103 L193.539305,31.3862069 C192.968182,32.1637931 191.825936,33.6482759 190.68369,34.2137931 C190.469519,34.2844828 190.255348,34.3551724 190.041176,34.3551724 L182.687968,34.3551724 C182.402406,34.3551724 182.116845,34.3551724 181.831283,34.2137931 C181.045989,33.7896552 178.547326,31.9517241 178.547326,30.6793103 L178.547326,11.3103448 C178.547326,10.9568966 178.547326,10.6034483 178.690107,10.3206897 C179.546791,9.04827586 180.617647,7.98793103 181.902674,7.21034483 C182.116845,7.13965517 182.259626,7.06896552 182.473797,7.06896552 L190.041176,7.06896552 C190.255348,7.06896552 190.540909,7.13965517 190.68369,7.28103448 C191.683155,8.05862069 192.61123,8.97758621 193.396524,9.96724138 L198.608021,8.48275862 C198.32246,7.98793103 198.036898,7.49310345 197.751337,7.06896552 C195.181283,3.74655172 192.61123,2.05 190.183957,2.05 L182.188235,1.97931034 Z" id="Shape"></path>
            <path d="M225.879144,39.5862069 L212.600535,23.6810345 L211.886631,23.6810345 L211.886631,39.5862069 L205.104545,39.5862069 L205.104545,1.55517241 L211.886631,1.55517241 L211.886631,17.3896552 L212.529144,17.3896552 C216.955348,12.1586207 221.452941,6.71551724 225.807754,1.55517241 L234.089037,1.55517241 L218.097594,20.5 C222.952139,26.2965517 229.448663,34.1431034 234.160428,39.5862069 L225.879144,39.5862069 Z" id="Path"></path>
            <path d="M235.731016,40.2931034 L225.593583,40.2931034 L212.600535,24.812069 L212.600535,40.2931034 L204.462032,40.2931034 L204.462032,0.848275862 L212.600535,0.848275862 L212.600535,16.187931 C214.742246,13.7137931 216.883957,11.0982759 218.954278,8.62413793 C221.024599,6.15 223.237701,3.53448276 225.308021,1.06034483 L225.522193,0.777586207 L235.659626,0.777586207 L219.025668,20.5 C220.739037,22.4793103 222.595187,24.7413793 224.451337,27.0034483 C228.020856,31.2448276 231.733155,35.6275862 234.66016,39.0913793 L235.731016,40.2931034 Z M226.236096,38.8793103 L232.66123,38.8793103 C229.877005,35.6275862 226.593048,31.6689655 223.451872,27.9224138 C221.381551,25.4482759 219.38262,23.1155172 217.597861,20.9948276 L217.240909,20.5706897 L232.66123,2.33275862 L226.236096,2.33275862 C224.237166,4.7362069 222.166845,7.13965517 220.096524,9.6137931 C217.812032,12.3706897 215.45615,15.1982759 213.100267,17.8844828 L212.886096,18.1672414 L211.172727,18.1672414 L211.172727,2.33275862 L205.88984,2.33275862 L205.88984,38.8793103 L211.172727,38.8793103 L211.172727,22.9741379 L212.957487,22.9741379 L226.236096,38.8793103 Z" id="Shape"></path>
            <path d="M265.00107,34.2137931 C263.716043,35.9810345 262.074064,37.5362069 260.289305,38.8086207 C259.075668,39.5155172 257.719251,39.8689655 256.291444,39.9396552 L245.083155,39.9396552 C241.299465,39.9396552 238.586631,36.9 236.944652,34.637931 C236.51631,34.0017241 236.087968,33.3655172 235.802406,32.6586207 L242.15615,30.537931 C242.941444,31.6689655 243.940909,32.587931 245.011765,33.4362069 C245.154545,33.5068966 245.297326,33.5068966 245.440107,33.5068966 L255.934492,33.5068966 C256.077273,33.5068966 256.220053,33.5068966 256.291444,33.4362069 C257.290909,32.9413793 259.147059,31.0327586 259.147059,30.537931 L259.147059,26.7913793 C259.147059,26.2965517 258.861497,25.8724138 258.361765,25.7310345 L241.656417,20.9948276 C238.37246,20.0758621 236.659091,16.9655172 236.659091,14.0672414 L236.659091,10.6034483 C236.587701,9.33103448 236.944652,8.05862069 237.658556,6.99827586 C239.014973,5.23103448 240.585561,3.67586207 242.441711,2.40344828 C243.655348,1.69655172 245.011765,1.34310345 246.439572,1.27241379 L255.934492,1.27241379 C259.789572,1.27241379 262.431016,4.38275862 264.072995,6.57413793 C264.572727,7.28103448 265.00107,7.98793103 265.358021,8.76551724 L258.861497,10.6034483 C258.076203,9.47241379 257.076738,8.48275862 256.005882,7.70517241 C256.005882,7.70517241 255.934492,7.63448276 255.64893,7.63448276 L246.653743,7.63448276 C246.510963,7.63448276 246.368182,7.63448276 246.296791,7.70517241 C245.297326,8.2 243.512567,9.96724138 243.512567,10.5327586 L243.512567,13.7137931 C243.512567,14.2086207 243.798128,14.6327586 244.226471,14.7741379 L261.003209,19.5810345 C264.287166,20.5 266.000535,23.6810345 266.000535,26.5086207 L266.000535,30.537931 C266.071925,31.8103448 265.714973,33.0827586 265.00107,34.2137931 Z" id="Path"></path>
            <path d="M256.291444,40.5758621 L245.083155,40.5758621 C241.013904,40.5758621 238.158289,37.3948276 236.373529,34.9913793 C236.016578,34.4965517 235.731016,34.0017241 235.445455,33.4362069 L234.731551,32.1637931 L242.441711,29.6189655 L242.727273,30.0431034 C243.441176,31.0327586 244.297861,31.9517241 245.297326,32.7293103 L256.077273,32.7293103 C257.005348,32.0931034 257.862032,31.3155172 258.575936,30.3965517 L258.575936,26.7206897 C258.575936,26.5793103 258.504545,26.437931 258.361765,26.2965517 L241.656417,21.5603448 C237.872727,20.5 236.159358,16.8948276 236.159358,13.9258621 L236.159358,10.6034483 C236.087968,9.18965517 236.51631,7.77586207 237.230214,6.57413793 C238.658021,4.7362069 240.3,3.11034483 242.22754,1.76724138 C243.583957,0.989655172 245.011765,0.565517241 246.582353,0.494827586 L256.077273,0.494827586 C260.503476,0.494827586 263.430481,4.24137931 264.786898,6.07931034 C265.358021,6.7862069 265.786364,7.63448276 266.143316,8.41206897 L266.500267,9.18965517 L258.718717,11.3810345 L258.433155,10.9568966 C257.719251,9.96724138 256.862567,9.04827586 255.863102,8.27068966 L246.725134,8.27068966 C246.653743,8.27068966 246.653743,8.27068966 246.582353,8.27068966 C245.654278,8.8362069 244.868984,9.6137931 244.297861,10.462069 L244.297861,13.5724138 C244.297861,13.7137931 244.369251,13.8551724 244.440642,13.9965517 L261.21738,18.8034483 C265.00107,19.8637931 266.714439,23.4689655 266.714439,26.437931 L266.714439,30.4672414 C266.785829,31.8810345 266.357487,33.2948276 265.572193,34.4965517 C264.215775,36.3344828 262.573797,37.9603448 260.646257,39.3034483 C259.36123,40.0810345 257.862032,40.5051724 256.291444,40.5758621 Z M236.873262,33.0827586 C237.087433,33.5068966 237.301604,33.8603448 237.587166,34.2137931 C239.157754,36.3344828 241.727807,39.2327586 245.154545,39.2327586 L256.291444,39.2327586 C257.576471,39.162069 258.790107,38.8086207 259.932353,38.1724138 C261.645722,36.9706897 263.14492,35.4862069 264.358556,33.7896552 L264.358556,33.7896552 C265.00107,32.8706897 265.286631,31.7396552 265.215241,30.537931 L265.215241,26.5086207 C265.215241,24.1051724 263.787433,21.0655172 260.717647,20.287931 L243.940909,15.4103448 C243.155615,15.1982759 242.655882,14.4206897 242.727273,13.6431034 L242.727273,10.462069 C242.727273,9.47241379 244.868984,7.5637931 245.868449,6.99827586 C246.08262,6.92758621 246.368182,6.85689655 246.582353,6.85689655 L255.64893,6.85689655 C255.934492,6.85689655 256.220053,6.92758621 256.434225,7.06896552 C257.50508,7.84655172 258.361765,8.76551724 259.147059,9.75517241 L264.358556,8.27068966 C264.144385,7.77586207 263.858824,7.35172414 263.501872,6.92758621 C261.574332,4.45344828 259.218449,1.90862069 255.934492,1.90862069 L246.439572,1.90862069 C245.154545,1.97931034 243.940909,2.33275862 242.798663,2.96896552 C241.085294,4.17068966 239.586096,5.65517241 238.30107,7.35172414 C237.729947,8.34137931 237.444385,9.47241379 237.444385,10.6034483 L237.444385,14.0672414 C237.444385,16.4706897 238.872193,19.5103448 241.941979,20.3586207 L258.647326,25.0948276 C259.43262,25.3068966 259.932353,26.0844828 259.932353,26.862069 L259.932353,30.6086207 C259.932353,31.6689655 257.43369,33.7189655 256.648396,34.1431034 C256.434225,34.2137931 256.148663,34.2844828 255.934492,34.2844828 L245.368717,34.2844828 C245.083155,34.2844828 244.868984,34.2844828 244.583422,34.1431034 L244.512032,34.0724138 C243.512567,33.2948276 242.655882,32.3758621 241.870588,31.3862069 L236.873262,33.0827586 Z" id="Shape"></path>
        </g>
    </g>
</svg>