<?xml version="1.0" encoding="utf-8"?>
<!-- Generator: Adobe Illustrator 23.1.1, SVG Export Plug-In . SVG Version: 6.00 Build 0)  -->
<svg version="1.1" id="Layer_1" xmlns="http://www.w3.org/2000/svg" xmlns:xlink="http://www.w3.org/1999/xlink" x="0px" y="0px"
	 viewBox="0 0 600 158" style="enable-background:new 0 0 600 158;" xml:space="preserve">
<style type="text/css">
	.st0{fill:#FFFFFF;}
</style>
<g>
	<g>
		<g>
			<path class="st0" d="M195.23,102.75c-16.31,6.92-34.04,10.26-50.17,10.26c-23.9,0-47.04-6.56-65.76-17.46
				c-1.64-0.95-2.85,0.74-1.49,1.97c17.36,15.66,40.27,25.06,65.73,25.06c18.16,0,39.26-5.71,53.8-16.44
				C199.75,104.37,197.69,101.7,195.23,102.75z"/>
			<path class="st0" d="M186.05,96.69c-1.28,0.9-1.06,2.14,0.36,1.98c4.68-0.56,15.14-1.82,16.99,0.57
				c1.86,2.39-2.07,12.2-3.82,16.6c-0.54,1.32,0.59,1.86,1.8,0.84c7.81-6.53,9.82-20.21,8.22-22.18
				C208.02,92.53,194.38,90.84,186.05,96.69z"/>
		</g>
		<path class="st0" d="M214.53,80.09c-4.45-2.5-9.63-3.23-14.52-3.12l13.19-18.83c1.24-1.69,1.92-2.76,1.92-3.58l0.01-4.87
			c-0.01-0.85-0.65-1.44-1.47-1.44l-25.47,0.01c-0.79-0.01-1.44,0.57-1.44,1.43v5.69c0,0.84,0.66,1.43,1.47,1.43h13.31l-15.29,21.93
			c-0.93,1.41-0.95,2.99-0.95,3.91v5.77c0,0.84,0.93,1.79,1.81,1.32c8.68-4.62,19.08-4.17,26.92-0.06c0.97,0.5,1.88-0.46,1.88-1.3
			v-6.06C215.81,81.5,215.55,80.65,214.53,80.09z"/>
		<path class="st0" d="M86.07,90.87h7.74c0.83,0,1.5-0.63,1.5-1.43l0-21.09c0-4.6-0.22-10.97,5.36-10.97c5.5,0,4.77,6.54,4.77,10.97
			l0.01,21.08c0,0.76,0.62,1.38,1.4,1.43l7.74,0c0.83,0,1.49-0.63,1.49-1.43V68.36c0-2.26-0.07-5.61,0.72-7.63
			c0.8-2,2.76-3.26,4.64-3.26c2.23,0,3.97,0.75,4.55,3.43c0.36,1.59,0.21,5.77,0.21,7.46l0.01,21.09c0,0.76,0.62,1.38,1.39,1.43
			h7.74c0.82,0,1.5-0.63,1.5-1.43l0-25.11c0-4.26,0.51-9.13-1.96-12.47c-2.18-3.01-5.71-4.36-8.97-4.36
			c-4.57,0-8.83,2.35-10.71,7.37c-2.17-5.02-5.21-7.37-10.06-7.37c-4.77,0-8.32,2.35-10.2,7.37l-0.15,0v-5.2
			c-0.04-0.72-0.65-1.29-1.41-1.33l-7.22,0c-0.82,0-1.49,0.64-1.49,1.44v39.78C84.73,90.28,85.33,90.83,86.07,90.87z"/>
		<path class="st0" d="M237.06,47.5c-11.22,0-17.44,9.63-17.44,22.02c0,12.3,6.15,22.18,17.44,22.18c10.85,0,17.72-9.63,17.72-21.77
			C254.78,57.39,248.55,47.5,237.06,47.5z M237.06,83.5c-6.08,0-6.01-10.37-6.01-15.23c0-4.85,0.36-12.64,6.07-12.64
			c2.47,0,4.2,1.08,5.08,3.85c1.01,3.17,1.15,7.18,1.15,10.55C243.35,75.14,243.06,83.5,237.06,83.5z"/>
		<path class="st0" d="M290.37,52.2c-2.17-3.43-5.56-4.69-9.04-4.69c-5.36,0-8.4,2.6-10.57,8.04h-0.15l0-6.09
			c-0.13-0.61-0.69-1.08-1.37-1.11h-7.19c-0.78,0-1.42,0.57-1.49,1.3l0.02,39.8c0,0.76,0.61,1.38,1.39,1.43h7.71
			c0.83,0,1.5-0.63,1.51-1.43V68.01c0-2.67,0.15-5.1,1.24-7.53c0.86-1.92,2.6-3.17,4.47-3.17c5.37,0,4.85,6.35,4.85,10.71v21.6
			c0.09,0.68,0.67,1.21,1.38,1.25h7.78c0.77,0,1.4-0.54,1.49-1.25l0-25.03C292.4,60.73,292.41,55.38,290.37,52.2z"/>
		<path class="st0" d="M166.43,63.99c-4.5,0.5-10.37,0.84-14.57,2.67c-4.86,2.1-8.26,6.39-8.26,12.68c0,8.05,5.07,12.08,11.59,12.08
			c5.51,0,8.53-1.3,12.79-5.63c1.4,2.04,1.86,3.02,4.44,5.16c0.58,0.31,1.32,0.29,1.83-0.18l0.01,0.01
			c1.55-1.37,4.37-3.82,5.95-5.14c0.62-0.52,0.51-1.36,0.03-2.06c-1.42-1.97-2.93-3.56-2.93-7.19V64.33c0-5.12,0.37-9.81-3.4-13.34
			c-2.98-2.85-7.91-3.85-11.68-3.85c-7.37,0-15.59,2.74-17.33,11.86c-0.18,0.96,0.52,1.47,1.17,1.61l7.51,0.81
			c0.7-0.03,1.21-0.72,1.35-1.42c0.64-3.13,3.27-4.66,6.23-4.66c1.59,0,3.41,0.6,4.34,2.03c1.1,1.59,0.95,3.78,0.95,5.61V63.99z
			 M164.98,80.1c-1.24,2.18-3.19,3.53-5.36,3.53c-2.97,0-4.71-2.27-4.71-5.63c0-6.6,5.92-7.8,11.52-7.8v1.69
			C166.43,74.9,166.5,77.41,164.98,80.1z"/>
		<path class="st0" d="M78.63,83.59c-1.41-1.96-2.93-3.56-2.93-7.18V64.33c0-5.12,0.36-9.81-3.41-13.34
			c-2.97-2.84-7.9-3.85-11.68-3.85c-7.37,0-15.6,2.75-17.32,11.86c-0.19,0.96,0.51,1.47,1.15,1.61l7.51,0.81
			c0.7-0.03,1.21-0.72,1.34-1.42c0.65-3.13,3.28-4.65,6.23-4.65c1.6,0,3.41,0.59,4.35,2.01c1.09,1.59,0.94,3.78,0.94,5.62v1.01
			c-4.49,0.51-10.37,0.85-14.56,2.68C45.4,68.77,42,73.06,42,79.35c0,8.05,5.07,12.08,11.6,12.08c5.51,0,8.51-1.3,12.77-5.63
			c1.41,2.04,1.87,3.03,4.44,5.16c0.58,0.31,1.32,0.29,1.84-0.18l0.02,0.01c1.55-1.37,4.36-3.83,5.94-5.15
			C79.25,85.13,79.13,84.29,78.63,83.59z M64.83,71.89c0,3.01,0.07,5.53-1.44,8.21c-1.24,2.18-3.2,3.53-5.38,3.53
			c-2.98,0-4.71-2.27-4.71-5.63c0-6.6,5.93-7.8,11.53-7.81V71.89z"/>
	</g>
	<g>
		<path class="st0" d="M423.47,64.27c-4.39,0.18-7.5,0.55-10.37,1.89c-4.77,2.23-7.4,6.43-7.4,11.82c0,7.82,5.57,13.29,13.54,13.29
			c4.3,0,8.36-1.7,12.09-5.05l0.74,3.55c0.08,0.37,0.4,0.64,0.78,0.64h4.33c0.25,0,0.48-0.11,0.64-0.31
			c0.14-0.19,0.2-0.45,0.13-0.69c-0.58-2.23-0.84-6.95-0.84-15.32V61.08c0-9.11-5.28-14.33-14.5-14.33c-3.46,0-8.72,0.75-14.14,4.29
			c-0.35,0.23-0.47,0.69-0.26,1.06l1.99,3.56c0.11,0.19,0.28,0.33,0.49,0.38c0.21,0.06,0.43,0.03,0.61-0.09
			c3-1.81,6.09-3.44,11.12-3.44c5.47,0,8.48,3.26,8.48,9.17v2.35L423.47,64.27z M419.59,85.52c-4.52,0-7.44-3.02-7.44-7.7
			c0-2.78,1.26-4.96,3.56-6.14c2.03-1.06,4.51-1.57,8.06-1.65l7.15-0.23v9.79C428.47,82.19,424.67,85.52,419.59,85.52z"/>
		<path class="st0" d="M358.22,64.27c-4.39,0.18-7.5,0.55-10.37,1.89c-4.77,2.23-7.4,6.43-7.4,11.82c0,7.82,5.57,13.29,13.54,13.29
			c4.3,0,8.36-1.7,12.09-5.05l0.74,3.55c0.08,0.37,0.4,0.64,0.78,0.64h4.33c0.25,0,0.48-0.11,0.64-0.31
			c0.14-0.19,0.2-0.45,0.13-0.69c-0.58-2.23-0.84-6.95-0.84-15.32V61.08c0-9.11-5.28-14.33-14.5-14.33c-3.46,0-8.72,0.75-14.14,4.29
			c-0.35,0.23-0.47,0.69-0.26,1.06l1.99,3.56c0.11,0.19,0.28,0.33,0.49,0.38c0.21,0.06,0.43,0.03,0.61-0.09
			c3-1.81,6.09-3.44,11.12-3.44c5.47,0,8.48,3.26,8.48,9.17v2.35L358.22,64.27z M354.35,85.52c-4.52,0-7.44-3.02-7.44-7.7
			c0-2.78,1.26-4.96,3.56-6.14c2.03-1.06,4.51-1.57,8.06-1.65l7.15-0.23v9.79C363.23,82.19,359.42,85.52,354.35,85.52z"/>
		<path class="st0" d="M325.9,52.42c3.36,0,6.44,0.82,9.41,2.5c0.25,0.14,0.55,0.14,0.79,0c0.25-0.15,0.4-0.41,0.4-0.69v-4.33
			c0-0.29-0.17-0.56-0.42-0.7c-2.9-1.55-6.61-2.44-10.17-2.44c-14.2,0-20.66,11.83-20.66,22.83c0,10.8,6.09,21.7,19.7,21.7
			c4.2,0,8.86-1.38,12.48-3.68c0.34-0.21,0.47-0.64,0.3-1l-1.56-3.47c-0.09-0.21-0.27-0.36-0.48-0.43
			c-0.22-0.07-0.45-0.05-0.64,0.06c-2.34,1.34-5.2,2.76-9.66,2.76c-8.57,0-13.69-6.19-13.69-16.55
			C311.69,59.07,317.4,52.42,325.9,52.42z"/>
		<path class="st0" d="M451.41,27.41h-4.6c-0.44,0-0.8,0.36-0.8,0.8v54.72c0,5.03,2.66,7.91,7.3,7.91c1.76,0,3.69-0.42,5.19-1.12
			c0.35-0.16,0.54-0.56,0.43-0.94l-1.04-3.73c-0.06-0.23-0.22-0.42-0.44-0.51c-0.22-0.1-0.47-0.09-0.69,0.02
			c-0.42,0.21-1.51,0.52-2.15,0.52c-1.46,0-2.41-0.27-2.41-3.8V28.21C452.21,27.77,451.85,27.41,451.41,27.41z"/>
		<path class="st0" d="M500.51,87.84c1.96,1.28,6.06,3.43,11.54,3.43c9.28,0,15.28-4.91,15.28-12.5c0-3.27-0.95-5.87-2.91-7.93
			c-2.15-2.23-5.1-3.62-7.96-4.96l-0.52-0.24c-4.75-2.19-7.86-3.9-7.86-7.69c0-3.67,2.67-5.53,7.95-5.53c3.86,0,6.65,1.02,8.87,2.01
			c0.24,0.11,0.53,0.09,0.76-0.06c0.22-0.15,0.37-0.4,0.37-0.67v-4.25c0-0.32-0.19-0.61-0.49-0.74c-2.17-0.9-5.63-1.97-9.76-1.97
			c-9.6,0-13.89,5.85-13.89,11.64c0,7.72,5.83,10.38,10.53,12.52l0.78,0.35c4.21,1.89,7.86,3.53,7.86,7.6
			c0,6.01-6.05,6.66-8.66,6.66c-4.77,0-7.61-1.66-9.49-2.76c-0.2-0.11-0.44-0.14-0.65-0.07c-0.22,0.07-0.4,0.24-0.48,0.45
			l-1.56,3.73C500.06,87.22,500.19,87.63,500.51,87.84z"/>
		<path class="st0" d="M557.93,86.5l-1.57-3.39c-0.1-0.21-0.29-0.38-0.51-0.44c-0.23-0.06-0.47-0.02-0.66,0.12
			c-1.81,1.27-4.21,2.72-6.74,2.72c-1.52,0-3.53-0.45-3.53-4.32V53.37h9.78c0.32,0,0.62-0.2,0.74-0.51l1.56-3.99
			c0.1-0.24,0.06-0.52-0.08-0.74c-0.15-0.22-0.4-0.34-0.66-0.34h-11.34V37.75c0-0.26-0.13-0.5-0.34-0.65
			c-0.21-0.15-0.49-0.19-0.73-0.1l-4.6,1.65c-0.32,0.11-0.53,0.41-0.53,0.75v8.39h-5.88c-0.44,0-0.8,0.36-0.8,0.8v3.99
			c0,0.44,0.36,0.8,0.8,0.8h5.88v28.17c0,6.27,3.15,9.73,8.86,9.73c4.04,0,7.72-2.07,10.1-3.8
			C557.98,87.25,558.08,86.84,557.93,86.5z"/>
		<path class="st0" d="M402.62,86.5l-1.57-3.39c-0.1-0.21-0.29-0.38-0.51-0.44c-0.23-0.06-0.47-0.02-0.66,0.12
			c-1.81,1.27-4.21,2.72-6.74,2.72c-1.52,0-3.53-0.45-3.53-4.32V53.37h9.78c0.32,0,0.62-0.2,0.74-0.51l1.56-3.99
			c0.1-0.24,0.06-0.52-0.08-0.74c-0.15-0.22-0.4-0.34-0.66-0.34H389.6V37.75c0-0.26-0.13-0.5-0.34-0.65
			c-0.21-0.15-0.49-0.19-0.73-0.1l-4.6,1.65c-0.32,0.11-0.53,0.41-0.53,0.75v8.39h-5.88c-0.44,0-0.8,0.36-0.8,0.8v3.99
			c0,0.44,0.36,0.8,0.8,0.8h5.88v28.17c0,6.27,3.15,9.73,8.86,9.73c4.04,0,7.72-2.07,10.1-3.8
			C402.67,87.25,402.77,86.84,402.62,86.5z"/>
		<path class="st0" d="M497.79,48.12c-0.15-0.21-0.39-0.33-0.65-0.33h-4.94c-0.34,0-0.65,0.22-0.76,0.55l-10.77,33.07l-14.09-33.13
			c-0.13-0.29-0.42-0.48-0.73-0.48h-5.29c-0.27,0-0.52,0.13-0.67,0.36c-0.15,0.22-0.17,0.51-0.06,0.75l17.93,41.28
			c-2.96,10.24-7.05,15.01-12.86,15.01c-1.84,0-3.58-0.33-5.16-0.98c-0.21-0.09-0.45-0.08-0.66,0.02c-0.21,0.11-0.36,0.29-0.42,0.52
			l-1.04,4.07c-0.1,0.39,0.1,0.79,0.48,0.94c2.1,0.84,4.04,1.18,6.71,1.18c6.28,0,12.8-2.07,17.93-17.11l15.17-45.01
			C497.97,48.6,497.94,48.33,497.79,48.12z"/>
	</g>
</g>
</svg>
